Coordinates											
version=1											
nRows=83											
nColumns=12											
inDegrees=yes											
											
"Units are S.I. units (second, meters, Newtons, ...)"											
"If the header above contains a line with 'inDegrees', this indicates whether rotational values are in degrees (yes) or radians (no)."											
											
endheader											
time	clav_prot	clav_elev	scapula_abduction	scapula_elevation	scapula_upward_rot	scapula_winging	plane_elv	shoulder_elv	axial_rot	elbow_flexion	pro_sup
2.72	-17.3340861	-6.25490696	-4.88342556	-4.2960123	9.47905385	6.25437376	-19.08293666	18.67660266	35.04682752	0	34.32
2.73	-17.29518734	-5.99130501	-4.69945277	-4.176573	9.79466213	6.08112307	-19.6154961	18.39692723	36.40116154	0	34.32
2.74	-17.19202571	-5.78518962	-4.60389973	-3.9906716	9.71793161	6.01030739	-19.03039334	18.61448042	35.30457584	0	34.32
2.75	-17.5775182	-5.93401794	-5.20553859	-4.14696687	9.79466899	6.11952952	-20.44580913	17.74421467	40.587199	0	34.32
2.76	-17.49702465	-5.99720256	-5.06735129	-4.18359029	9.76518475	6.13177132	-20.81684107	17.69956532	41.0334344	0	34.32
2.77	-17.5292855	-6.0282449	-5.09573307	-4.2202887	9.80502333	6.13883082	-20.98978467	17.59495521	41.71268834	0	34.32
2.78	-17.62013116	-5.94929291	-5.18494735	-4.20750441	9.96412365	6.09244789	-21.29275421	17.16883668	45.62730795	0	34.32
2.79	-17.61052902	-5.93480448	-5.18135446	-4.19060991	9.94527243	6.08972955	-21.29080937	17.15534471	45.62525867	0	34.32
2.8	-17.42426977	-5.94853333	-4.94078846	-4.14694736	9.78279448	6.09638804	-20.99411625	17.48850722	42.34636484	0	34.32
2.81	-17.34927942	-6.05816567	-4.89399941	-4.17338756	9.58442563	6.16583711	-20.21337351	17.80595875	40.1415255	0	34.32
2.82	-17.38654671	-6.04357984	-4.91943003	-4.18582176	9.6636345	6.14932322	-20.74786243	17.67545615	40.43648266	0	34.32
2.83	-17.38155608	-6.06261613	-4.88695453	-4.21025447	9.69994098	6.14560171	-20.9782192	17.64161748	40.0873001	0	34.32
2.84	-17.46695215	-6.05070316	-5.03022482	-4.20993364	9.71605538	6.15542505	-20.89828905	17.62032752	39.2421406	0	34.32
2.85	-17.47610861	-6.09886557	-5.06789179	-4.23157949	9.65734118	6.18757214	-21.15864741	17.55748722	39.42178223	0	34.32
2.86	-17.54792785	-6.22808045	-5.13090834	-4.35347346	9.7230199	6.22948196	-21.78159656	17.34236945	40.13260245	0	34.32
2.87	-17.54798744	-6.18316248	-5.1565606	-4.31052558	9.69337032	6.22196878	-21.76669523	17.30431543	40.15209259	0	34.32
2.88	-17.52970086	-5.9143199	-5.23948718	-4.07167869	9.58539048	6.15492994	-21.2458058	17.49476153	38.62527795	0	34.32
2.89	-17.56122895	-6.2797023	-5.18863444	-4.37126702	9.63957249	6.27005598	-21.94756964	17.25359321	39.60031505	0	34.32
2.9	-17.56682169	-6.25263646	-5.21226835	-4.34645699	9.62460497	6.26608509	-21.93653862	17.21943154	39.61366392	0	34.32
2.91	-17.68578327	-6.06109121	-5.3860023	-4.24207233	9.76194529	6.19171773	-21.5852446	17.15607453	38.84512085	0	34.32
2.92	-17.69474323	-6.01644753	-5.38711181	-4.21996514	9.80579617	6.16815353	-22.55141674	16.60857415	44.50113335	0	34.32
2.93	-17.69199025	-6.02095528	-5.37993329	-4.22411192	9.8086173	6.16801469	-22.54548554	16.60440427	44.50271325	0	34.32
2.94	-17.70324436	-6.11499626	-5.42141215	-4.27648935	9.73194532	6.22052493	-22.14273263	16.8639108	41.75222487	0	34.32
2.95	-17.71970392	-6.26897407	-5.621608	-4.29308191	9.35510711	6.36743392	-20.90970444	17.57433421	35.32286202	0	34.32
2.96	-17.65261525	-6.17179951	-5.39493241	-4.28030754	9.59534223	6.26291482	-21.76415957	17.33542632	36.23629475	0	34.32
2.97	-17.62851101	-5.91687562	-5.27381415	-4.1488549	9.84011243	6.11309582	-22.20954307	16.5153227	43.75888176	0	34.32
2.98	-17.68760516	-5.97831652	-5.54133772	-4.10955251	9.51286204	6.22518129	-21.0290126	17.03494838	39.54852545	0	34.32
2.99	-17.53188549	-6.01700574	-5.44162092	-4.03851041	9.17665878	6.28912695	-20.12252617	17.29989672	35.72276917	0	34.32
3	-17.81859461	-6.02822912	-5.82851379	-4.12008183	9.38565587	6.29833687	-20.57263372	17.00677897	36.35898617	0	34.32
3.01	-17.71361272	-6.0774616	-5.58205222	-4.17952947	9.48302029	6.27056863	-20.97919655	16.91510226	37.243446	0	34.32
3.02	-17.55917077	-5.94200374	-5.43389005	-4.01855431	9.30952926	6.23743981	-20.46058027	17.28475283	35.91901968	0	34.32
3.03	-17.84463648	-6.0754061	-5.83309329	-4.17388553	9.44316128	6.3050681	-21.3176929	16.78679806	38.20898105	0	34.32
3.04	-17.88434304	-6.11880312	-5.98526796	-4.16250148	9.27231687	6.36878148	-20.89219841	16.9817786	37.22487104	0	34.32
3.05	-17.92467893	-6.31989469	-6.08899421	-4.28178459	9.13154788	6.4780693	-21.31862988	17.03408631	37.47731587	0	34.32
3.06	-17.9285786	-6.30996411	-6.11206233	-4.26698046	9.10525437	6.48231888	-21.30757254	17.02731298	37.488566	0	34.32
3.07	-17.9431847	-6.28659916	-6.31214022	-4.16148246	8.78723523	6.55419974	-20.54922609	17.31619812	36.1100253	0	34.32
3.08	-18.05827873	-6.24446777	-6.43832613	-4.17855251	8.94445813	6.5235133	-20.76879284	17.04518228	38.04835367	0	34.32
3.09	-17.94009388	-6.2921196	-6.36071652	-4.13674644	8.68341913	6.58057218	-20.1225394	17.45735444	37.25265358	0	34.32
3.1	-17.94379366	-6.31444814	-6.33991146	-4.16611809	8.7259644	6.57843683	-20.20947932	17.59998001	36.61132791	0	34.32
3.11	-17.95205696	-6.46415262	-6.35099859	-4.26835459	8.67370449	6.64356096	-20.16900591	17.74804505	35.91930268	0	34.32
3.12	-17.83062376	-6.42050085	-6.3817494	-4.10452843	8.23102828	6.71230545	-18.93773406	18.40296266	33.71283382	0	34.32
3.13	-17.85800803	-6.44160487	-6.3897587	-4.14111756	8.29812523	6.70835597	-18.94661971	18.51991628	33.72681165	0	34.32
3.14	-17.77233291	-6.36166856	-6.15857779	-4.12620991	8.48370952	6.61929782	-18.88101574	18.91407873	32.64489252	0	34.32
3.15	-17.80085121	-6.36303239	-6.18862338	-4.139162	8.5209404	6.61698676	-18.86921477	18.999833	32.65504665	0	34.32
3.16	-17.97544473	-6.4368445	-6.4667245	-4.21206771	8.54303738	6.66990132	-18.44682621	19.26769554	31.68554199	0	34.32
3.17	-18.00492336	-6.43531537	-6.4996449	-4.22236075	8.57873202	6.66661535	-18.43484884	19.35410951	31.6951857	0	34.32
3.18	-18.06371632	-6.30283544	-6.58846804	-4.14425041	8.65688755	6.61357168	-18.2718044	19.63902647	31.05874437	0	34.32
3.19	-18.10527503	-6.3203835	-6.63412066	-4.17242326	8.70093021	6.6168508	-18.26144829	19.73891456	31.07025004	0	34.32
3.2	-18.45949332	-6.40293005	-7.2261184	-4.26057556	8.71838736	6.70437395	-18.28764516	20.05754325	30.34346491	0	34.32
3.21	-18.59598884	-6.44569702	-7.44946983	-4.30434963	8.72947715	6.73993887	-18.30930264	20.24678111	29.93410562	0	34.32
3.22	-18.58682513	-6.36543871	-7.37857732	-4.27889331	8.8643804	6.6783092	-18.3235049	20.56861724	29.31430784	0	34.32
3.23	-18.40090739	-6.15703865	-7.02093464	-4.14702546	9.00907724	6.54052808	-18.25019113	21.18015906	28.28992252	0	34.32
3.24	-18.24020055	-6.05671324	-6.71876477	-4.08266025	9.08906123	6.45887972	-17.92991997	22.07207231	26.81870983	0	34.32
3.25	-18.34376068	-6.2749349	-6.89161969	-4.23779645	9.01750362	6.56807629	-18.30910273	22.55738261	25.46277553	0	34.32
3.26	-18.29279455	-6.21831299	-6.67038961	-4.26545529	9.28652315	6.47462617	-18.56864857	22.88859714	24.78034076	0	34.32
3.27	-18.19450213	-6.06795691	-6.38372239	-4.2188437	9.55944549	6.33993528	-18.31575845	23.3293442	23.9579932	0	34.32
3.28	-18.25949516	-6.04817066	-6.46401313	-4.22586552	9.62833262	6.32803166	-18.32960173	23.45394546	23.9659622	0	34.32
3.29	-18.43583647	-5.88296508	-6.72132821	-4.15110819	9.78760487	6.26506562	-18.73001276	24.05558763	23.12194306	0	34.32
3.3	-18.48875461	-5.88060725	-6.76215335	-4.17845929	9.88358661	6.24997408	-18.93389821	24.49518348	22.2991744	0	34.32
3.31	-18.45676164	-5.94874353	-6.67335687	-4.23866128	9.91701731	6.25910334	-19.04822669	24.93805597	21.64227165	0	34.32
3.32	-18.68081811	-5.8851916	-6.99619645	-4.24281698	10.0679443	6.23935091	-19.21560772	25.10563249	21.26542532	0	34.32
3.33	-18.73562444	-5.86196243	-7.056763	-4.24789646	10.14134007	6.22216011	-19.20331365	25.26072815	21.2796355	0	34.32
3.34	-18.96757172	-5.69993452	-7.34747625	-4.20965928	10.41463047	6.13853927	-19.22215529	25.64017754	20.73333317	0	34.32
3.35	-19.12265763	-5.75998244	-7.52261194	-4.30518136	10.56397188	6.14572428	-19.2357556	26.00206035	20.79612282	0	34.32
3.36	-19.20148003	-5.79130312	-7.56734222	-4.37582905	10.71932808	6.13017018	-19.49836861	26.57125358	20.14186626	0	34.32
3.37	-19.12168241	-5.84327148	-7.32619029	-4.4559356	10.88309956	6.09620858	-19.50741234	27.17163246	19.53300302	0	34.32
3.38	-19.1829856	-5.83275305	-7.38302115	-4.47640669	10.97683044	6.07843143	-19.49999067	27.36002595	19.54971709	0	34.32
3.39	-20.17955402	-6.13639556	-9.15529098	-4.71676577	10.79107299	6.36507035	-18.74567344	27.5619833	20.11832287	0	34.32
3.4	-19.98898166	-5.66365758	-8.68787814	-4.45707096	11.22386089	6.07164153	-18.41396858	27.83595976	19.40358046	0	34.32
3.41	-20.07448853	-5.28955635	-8.68956396	-4.28440642	11.6382553	5.85417881	-18.50357488	28.03182728	18.78069196	0	34.32
3.42	-20.25003965	-5.17773598	-8.81278321	-4.30654498	12.00686181	5.74656445	-18.61198667	28.39231734	18.20790607	0	34.32
3.43	-20.27038429	-5.22741439	-8.67365219	-4.42196317	12.29305571	5.69452116	-18.97825711	28.85054705	17.76721898	0	34.32
3.44	-20.29938238	-5.24326426	-8.55077354	-4.51413971	12.58945118	5.62987783	-19.34330089	29.34433419	17.32705906	0	34.32
3.45	-20.41213581	-5.12929466	-8.58735186	-4.51803306	12.91303603	5.52408399	-19.41122998	29.83982384	16.79000608	0	34.32
3.46	-20.53898473	-4.9675085	-8.68081966	-4.47583834	13.19875441	5.41268798	-19.26243004	30.30803431	16.21710124	0	34.32
3.47	-20.67046079	-4.79139096	-8.79434986	-4.41874014	13.46895732	5.30053129	-19.04166312	30.68812615	15.66097245	0	34.32
3.48	-20.81847713	-4.59164044	-8.93976253	-4.34543208	13.74315006	5.18096777	-18.82128674	30.98806474	15.13746426	0	34.32
3.49	-21.02042071	-4.46703509	-9.1511661	-4.33675147	14.0332307	5.08661233	-18.70137184	31.36885461	14.68655256	0	34.32
3.5	-21.13680464	-4.43907083	-9.22828089	-4.37983521	14.2569562	5.03148098	-18.73269079	31.77102907	14.28433283	0	34.32
3.51	-21.26259442	-4.39351186	-9.30004436	-4.42084835	14.52368951	4.96035468	-18.71579778	32.16666251	13.87917158	0	34.32
3.52	-21.44014288	-4.23052824	-9.46027298	-4.38771668	14.84044371	4.84170545	-18.48736069	32.4279979	13.45807928	0	34.32
3.53	-21.60135471	-4.04950612	-9.6169466	-4.33080323	15.12227101	4.72399282	-18.12780886	32.67974053	13.06056402	0	34.32
3.54	-21.69376607	-3.91362118	-9.66136244	-4.29608326	15.37218312	4.62368311	-17.83927868	32.95150117	12.67127684	0	34.32
